<?xml version="1.0" encoding="UTF-8" standalone="no"?><!-- Generator: Gravit.io --><svg xmlns="http://www.w3.org/2000/svg" xmlns:xlink="http://www.w3.org/1999/xlink" style="isolation:isolate" viewBox="-2.778 14 76.778 28" width="76.778pt" height="28pt"><defs><clipPath id="_clipPath_5sp37opL179p6SY3TWJkp08EUhP79H9q"><rect x="-2.778" y="14" width="76.778" height="28"/></clipPath></defs><g clip-path="url(#_clipPath_5sp37opL179p6SY3TWJkp08EUhP79H9q)"><mask id="_mask_KR8RLfGwAC2N0t96y2y0gE73YV5jyb0F" x="-200%" y="-200%" width="400%" height="400%"><rect x="-200%" y="-200%" width="400%" height="400%" style="fill:white;"/><path d=" M 54 18 L 50 24 L 60 38 L 70 24 L 66 18 L 54 18 Z " fill="black" stroke="none"/></mask><path d=" M 54 18 L 50 24 L 60 38 L 70 24 L 66 18 L 54 18 Z " fill="rgb(251,251,251)"/><path d=" M 54 18 L 50 24 L 60 38 L 70 24 L 66 18 L 54 18 Z " fill="rgb(251,251,251)" mask="url(#_mask_KR8RLfGwAC2N0t96y2y0gE73YV5jyb0F)" vector-effect="non-scaling-stroke" stroke-width="2" stroke="rgb(0,0,0)" stroke-linejoin="miter" stroke-linecap="butt" stroke-miterlimit="4"/><mask id="_mask_nDZBLEhDiRLC1E3nmGd6tpN1q5i3BVUX" x="-200%" y="-200%" width="400%" height="400%"><rect x="-200%" y="-200%" width="400%" height="400%" style="fill:white;"/><path d=" M 5.222 18 L 1.222 24 L 11.222 38 L 21.222 24 L 17.222 18 L 5.222 18 Z " fill="black" stroke="none"/></mask><path d=" M 5.222 18 L 1.222 24 L 11.222 38 L 21.222 24 L 17.222 18 L 5.222 18 Z " fill="rgb(251,251,251)"/><path d=" M 5.222 18 L 1.222 24 L 11.222 38 L 21.222 24 L 17.222 18 L 5.222 18 Z " fill="rgb(251,251,251)" mask="url(#_mask_nDZBLEhDiRLC1E3nmGd6tpN1q5i3BVUX)" vector-effect="non-scaling-stroke" stroke-width="2" stroke="rgb(0,0,0)" stroke-linejoin="miter" stroke-linecap="butt" stroke-miterlimit="4"/><path d=" M 17 17 L 55 17 L 55 41 L 17 41 L 17 17 Z  M 36 23 C 39.498 23 42.333 25.686 42.333 29 C 42.333 32.314 39.498 35 36 35 C 32.502 35 29.667 32.314 29.667 29 C 29.667 25.686 32.502 23 36 23 Z  M 25.444 21 C 25.444 23.209 23.554 25 21.222 25 L 21.222 33 C 23.554 33 25.444 34.791 25.444 37 L 46.556 37 C 46.556 34.791 48.446 33 50.778 33 L 50.778 25 C 48.446 25 46.556 23.209 46.556 21 L 25.444 21 Z " fill="rgb(0,0,0)"/></g></svg>